<?xml version="1.0" standalone="no"?><!DOCTYPE svg PUBLIC "-//W3C//DTD SVG 1.1//EN" "http://www.w3.org/Graphics/SVG/1.1/DTD/svg11.dtd"><svg t="1638599491164" class="icon" viewBox="0 0 1024 1024" version="1.1" xmlns="http://www.w3.org/2000/svg" p-id="6694" xmlns:xlink="http://www.w3.org/1999/xlink" width="200" height="200"><defs><style type="text/css"></style></defs><path d="M863.55552999 521.43827083c-13.72839391-46.33332948-10.29629546-83.22838816-6.00617232-104.67900368h-29.17283711c0-2.57407386 0.85802462-5.14814772 0.85802462-7.72222159 2.57407386-12.87036929 6.00617233-20.59259088 6.00617233-20.59259088l4.29012311-9.43827084H511.76543565v-22.30864013l-18.87654167 14.58641853v-49.76542796h49.765428v1.71604925H863.55552999l-30.03086172-139.85801314-24.88271397 4.2901231-7.72222158-36.03703403-308.03083874 55.77160031V143.04941326c6.86419697-2.57407386 11.15432006-9.43827083 11.15432007-16.30246782 0-10.29629546-7.72222158-18.01851702-18.01851703-18.01851702-10.29629546 0-18.01851702 7.72222158-18.01851702 18.01851702 0 7.72222158 4.29012309 13.72839391 11.15432007 16.30246782v173.32097329L298.11730516 454.51235043c-3.43209849 2.57407386-3.43209849 6.86419697-1.71604923 9.43827081l-5.14814772 4.29012313c-2.57407386-3.43209849-6.86419697-3.43209849-9.43827083-1.71604927L254.35804954 487.11728601c-3.43209849 2.57407386-3.43209849 6.86419697-1.71604924 9.43827083l-2.57407387 1.71604925c-2.57407386-3.43209849-6.86419697-3.43209849-9.43827082-1.71604925l-38.61110792 29.17283707c-5.14814772 4.29012309-6.86419697 10.29629546-5.14814773 17.16049242 1.71604925 6.00617233 7.72222158 10.29629546 14.58641854 10.29629544h41.1851818c0 0.85802462-0.85802462 0.85802462-0.85802465 1.71604924h226.51849979v42.90123102h-180.18517028c-35.17900942 0-53.19752647 13.72839391-69.49999425 34.32098482-2.57407386 3.43209849-1.71604925 7.72222158 0.85802462 9.43827081h0.85802462c-1.71604925 2.57407386-2.57407386 6.00617233-3.43209847 8.58024623h-0.85802463c-4.29012309 0-6.86419697 2.57407386-6.86419696 6.86419695 0 8.5802462 1.71604925 17.16049241 5.14814772 24.88271399l6.00617234 15.44444316c0.85802462 2.57407386 3.43209849 4.29012309 6.86419698 4.29012311 0.85802462 0 1.71604925 0 2.57407386-0.85802463l2.57407385 6.00617236c-3.43209849 1.71604925-5.14814772 5.14814772-4.2901231 9.43827082l49.76542799 125.27159457c17.16049241 32.60493557 47.19135413 54.91357571 82.37036355 60.91974803 0.85802462 0.85802462 1.71604925 2.57407386 3.43209848 3.4320985 12.87036929 6.00617233 27.45678784 8.5802462 42.04320639 8.58024619h256.5493615c40.32715715 0 77.22221583-22.30864012 96.09875747-58.34567417l24.02468939-49.765428c-12.01234468 0.85802462-18.01851702 9.43827083-25.74073862 19.73456628-5.14814772 7.72222158-12.01234468 15.44444316-20.59259089 20.5925909 0.85802462-1.71604925 1.71604925-3.43209849 2.57407385-4.2901231l22.30864013-45.47530489c6.00617233-5.14814772 13.72839391-9.43827083 24.02468938-9.43827082h2.57407387l46.3333295-96.95678211c7.72222158-14.58641855 6.00617233-32.60493557-4.29012311-45.47530487-5.14814772-1.71604925-10.29629546-3.43209849-15.44444317-4.29012313-1.71604925-3.43209849-4.29012309-6.86419697-6.86419696-10.29629543-2.57407386-2.57407386-4.29012309-5.14814772-6.86419696-6.86419696-3.43209849-2.57407386-6.86419697-5.14814772-11.15432006-7.72222157-17.16049241-10.29629546-38.61110791-15.44444316-60.91974806-15.44444318H492.88889398v-42.90123099H511.76543565V520.5802462h30.88888633v1.71604926H863.55552999z" fill="#C4ADAD" p-id="6695"></path><path d="M771.7468956 670.73455477l-75.50616657 157.87653015c-18.87654164 36.03703405-55.77160034 58.34567419-96.09875747 58.34567417H343.59261006c-14.58641855 0-29.17283709-2.57407386-42.0432064-8.58024619-22.30864012-9.43827083-42.04320639-26.59876323-53.19752645-49.76542798L185.71607992 669.87653015c-6.86419697-13.72839391-6.86419697-30.88888633 2.57407384-42.90123102 14.58641855-18.87654164 30.88888633-31.74691093 63.49382189-31.74691097H691.95060589c21.4506155 0 42.04320639 5.14814772 57.4876496 14.58641855 6.86419697 4.29012309 12.01234468 8.5802462 17.1604924 13.72839393 0.85802462 0.85802462 0.85802462 0.85802462 0.8580246 1.71604925 10.29629546 13.72839391 12.01234468 30.88888633 4.29012311 45.47530488z" fill="#FFFFFF" p-id="6696"></path><path d="M746.006157 796.86417396l-24.02468937 49.76542799c-18.87654164 36.03703405-55.77160034 58.34567419-96.09875746 58.34567418H369.33334867c-14.58641855 0-29.17283709-2.57407386-42.0432064-8.58024622-7.72222158-7.72222158-15.44444316-17.16049241-20.5925909-27.45678783l-11.15432006-28.31481247c17.16049241-0.85802462 26.59876323-12.87036929 34.32098482-24.02468938 7.72222158-10.29629546 14.58641855-19.73456627 28.31481247-19.73456627 13.72839391 0 20.59259088 9.43827083 28.31481247 19.73456627 8.5802462 11.15432006 18.01851702 24.02468937 36.89505867 24.02468938 18.87654164 0 28.31481246-12.87036929 36.89505866-24.02468938 7.72222158-10.29629546 14.58641855-19.73456627 28.31481248-19.73456627 13.72839391 0 20.59259088 9.43827083 28.31481248 19.73456627 8.5802462 11.15432006 18.01851702 24.02468937 36.89505868 24.02468938 18.87654164 0 28.31481246-12.87036929 36.89505867-24.02468938 7.72222158-10.29629546 14.58641855-19.73456627 28.31481249-19.73456627 13.72839391 0 20.59259088 9.43827083 28.31481246 19.73456627 6.00617233 8.5802462 12.87036929 18.01851702 24.02468936 22.30864013 3.43209849 1.71604925 7.72222158 2.57407386 12.8703693 2.57407386 18.87654164 0 28.31481246-12.87036929 36.89505869-24.02468937 6.86419697-11.15432006 12.87036929-19.73456627 24.88271399-20.59259089z" fill="#F9F18F" p-id="6697"></path><path d="M797.48763423 680.17282559l-46.33332951 96.95678211h-2.57407387c-18.87654164 0-28.31481246 12.87036929-36.89505865 24.02468937-7.72222158 10.29629546-14.58641855 19.73456627-28.31481251 19.73456626-2.57407386 0-5.14814772-0.85802462-7.72222157-0.85802461-8.5802462-2.57407386-13.72839391-10.29629546-20.59259088-18.87654165-8.5802462-11.15432006-18.01851702-24.02468937-36.89505866-24.02468937-18.87654164 0-28.31481246 12.87036929-36.89505869 24.02468937-7.72222158 10.29629546-14.58641855 19.73456627-28.31481248 19.73456626-13.72839391 0-20.59259088-9.43827083-28.31481246-19.73456626-8.5802462-11.15432006-18.01851702-24.02468937-36.89505868-24.02468937-18.87654164 0-28.31481246 12.87036929-36.89505868 24.02468937-7.72222158 10.29629546-14.58641855 19.73456627-28.31481245 19.73456626-13.72839391 0-20.59259088-9.43827083-28.31481248-19.73456626-8.5802462-11.15432006-18.01851702-24.02468937-36.89505868-24.02468937-18.87654164 0-28.31481246 12.87036929-36.89505869 24.02468937-7.72222158 10.29629546-14.58641855 19.73456627-28.31481246 19.73456626h-1.71604925l-47.19135411-119.26542223c-6.86419697-13.72839391-6.86419697-30.88888633 2.57407386-42.90123102 14.58641855-18.87654164 30.88888633-31.74691093 63.49382191-31.74691095h441.02465487c15.44444316 0 30.03086171 2.57407386 42.0432064 7.72222158 12.01234468 12.87036929 12.87036929 30.88888633 5.14814772 45.47530488z" fill="#FFC773" p-id="6698"></path><path d="M720.26541839 779.70368155l-24.02468936 49.76542798c-18.87654164 36.03703405-55.77160034 58.34567419-96.09875747 58.34567418h-54.91357573c40.32715715 0 77.22221583-22.30864012 96.09875749-58.34567418l3.43209848-7.72222158c3.43209849 1.71604925 7.72222158 2.57407386 12.8703693 2.57407387 18.87654164 0 28.31481246-12.87036929 36.89505867-24.02468937 6.86419697-11.15432006 13.72839391-19.73456627 25.74073862-20.5925909z" fill="#FFD527" p-id="6699"></path><path d="M771.7468956 670.73455477l-46.33332949 96.9567821h-2.57407386c-18.87654164 0-28.31481246 12.87036929-36.89505867 24.02468938-7.72222158 10.29629546-14.58641855 19.73456627-28.31481248 19.73456624-2.57407386 0-5.14814772-0.85802462-7.72222159-0.85802461l66.92592041-139.85801311c7.72222158-15.44444316 6.00617233-33.46296019-5.14814772-46.33332951-1.71604925-2.57407386-4.29012309-4.29012309-6.86419696-6.00617234h20.59259087c15.44444316 0 30.03086171 2.57407386 42.04320638 7.72222157 10.29629546 12.87036929 12.01234468 30.03086171 4.29012311 44.61728028z" fill="#FF9C31" p-id="6700"></path><path d="M439.69136753 597.80246203c-3.43209849 0-6.86419697-2.57407386-6.86419696-6.86419695v-463.33329499c0-3.43209849 2.57407386-6.86419697 6.86419696-6.86419698s6.86419697 2.57407386 6.86419696 6.86419698v464.19131962c-0.85802462 3.43209849-3.43209849 6.00617233-6.86419696 6.00617232z" fill="#961919" p-id="6701"></path><path d="M439.69136753 309.50618959V537.7407386h-274.56787852c-7.72222158 0-11.15432006-9.43827083-5.14814773-14.58641854l279.71602625-213.64813047z" fill="#FFFFFF" p-id="6702"></path><path d="M465.43210614 346.40124827v200.77776115H205.45064616c0.85802462-0.85802462 0.85802462-2.57407386 2.57407387-3.43209849l257.40738611-197.34566266z" fill="#B7E2F9" p-id="6703"></path><path d="M439.69136753 337.82100207V537.7407386h-44.61728026V371.28396224z" fill="#54D8FC" p-id="6704"></path><path d="M782.04319105 304.35804188H439.69136753V205.68521055l308.88886332-55.77160034 3.43209849 13.72839393z" fill="#FFFFFF" p-id="6705"></path><path d="M789.76541265 310.36421423H432.82717057V200.53706281l320.901208-58.34567418 36.03703408 168.1728256zM445.69753989 297.49384493h327.76540498L743.43208313 156.77780718l-297.73454324 54.05555108V297.49384493z" fill="#961919" p-id="6706"></path><path d="M817.22220049 312.93828809H496.32099247V225.4197768l290.87034632-52.33950185z" fill="#F9F18F" p-id="6707"></path><path d="M782.04319105 304.35804188h-44.61728025L709.11109833 171.36422572l42.90123101-7.72222158z" fill="#FFD527" p-id="6708"></path><path d="M782.04319105 503.4197538H439.69136753V376.43210998h342.35182352s-3.43209849 7.72222158-6.00617236 22.30864013c-4.29012309 21.4506155-7.72222158 57.48764957 6.00617236 104.67900369z" fill="#FFFFFF" p-id="6709"></path><path d="M790.62343726 509.42592614H432.82717057V369.56791301h358.65429131l-4.29012309 8.58024621s-3.43209849 7.72222158-6.00617235 20.59259089c-4.29012309 21.4506155-6.86419697 56.62962496 6.00617235 102.10492983l3.43209847 8.5802462z m-344.92589737-12.8703693h327.76540498c-11.15432006-43.75925563-8.5802462-78.08024046-4.29012314-99.53085597 0.85802462-6.00617233 2.57407386-10.29629546 3.43209851-14.58641853H445.69753989v114.1172745z" fill="#961919" p-id="6710"></path><path d="M817.22220049 512H496.32099247V406.4629717h314.03701106c-4.29012309 22.30864012-6.86419697 58.34567419 6.86419696 105.5370283z" fill="#B7E2F9" p-id="6711"></path><path d="M782.04319105 503.4197538h-44.61728025c-13.72839391-46.33332948-10.29629546-83.22838816-6.00617233-104.67900369h44.61728022c-4.29012309 21.4506155-7.72222158 57.48764957 6.00617236 104.67900369z" fill="#54D8FC" p-id="6712"></path><path d="M648.19135028 733.37035203l-58.3456742-0.8580246s-2.57407386-11.15432006 12.87036934-9.43827083c15.44444316 1.71604925 0 0 0 0l18.01851702 4.29012312 17.16049238-4.29012312c-0.85802462 0 15.44444316 1.71604925 10.29629546 10.29629543z" fill="#FFFFFF" p-id="6713"></path><path d="M649.90739951 736.80245053l-62.63579728-0.85802462-0.85802464-2.57407388c0-0.85802462-0.85802462-6.00617233 2.57407388-9.4382708 2.57407386-3.43209849 7.72222158-4.29012309 13.72839395-4.29012311l6.86419695 0.85802462v0.85802462l11.15432007 2.57407387 17.16049238-3.43209849h0.85802464c1.71604925 0 11.15432006 1.71604925 13.72839391 6.86419698 0.85802462 1.71604925 1.71604925 4.29012309-0.85802461 7.72222158l-1.71604925 1.71604923z m-26.59876321-6.86419695h22.30864011c-0.85802462-1.71604925-5.14814772-2.57407386-8.5802462-3.43209851l-13.72839391 3.43209851z m-30.88888634-0.85802464h24.02468938l-14.58641855-3.43209848c-4.29012309 0-6.86419697 0-8.58024622 1.71604926 0 0.85802462-0.85802462 0.85802462-0.85802461 1.71604922z" fill="#961919" p-id="6714"></path><path d="M648.19135028 733.37035203l-54.0555511-0.8580246s-1.71604925-8.5802462 8.58024624-9.43827083h4.2901231l15.44444314 3.43209847 2.57407387 0.85802465 15.44444316-3.43209849c4.29012309 0.85802462 11.15432006 3.43209849 7.72222159 9.4382708z" fill="#F9F18F" p-id="6715"></path><path d="M678.22221198 710.20368729l-57.48764954 18.01851703h-1.71604924L563.24691286 709.34566268l-1.71604923-0.85802462s-5.14814772-1.71604925-2.57407388-7.72222159c0.85802462-0.85802462 10.29629546-24.02468937 33.46296021-32.60493556 15.44444316-6.00617233 26.59876323-5.14814772 29.17283709-5.14814772 3.43209849 0 14.58641855 0 27.45678787 6.00617235 8.5802462 3.43209849 15.44444316 9.43827083 20.59259087 15.44444315 7.72222158 9.43827083 11.15432006 18.01851702 11.15432006 18.87654165 2.57407386 5.14814772-2.57407386 6.86419697-2.57407387 6.86419695z" fill="#FFFFFF" p-id="6716"></path><path d="M620.73456244 731.65430282h-3.4320985l-56.62962495-19.73456628c-0.85802462 0-3.43209849-1.71604925-5.14814771-5.14814771-0.85802462-1.71604925-0.85802462-4.29012309 0-6.86419697 2.57407386-6.00617233 12.87036929-26.59876323 35.17900943-34.32098481 14.58641855-5.14814772 25.7407386-5.14814772 29.17283711-5.14814771 12.01234468 0 23.16666475 3.43209849 29.1728371 6.00617233 8.5802462 3.43209849 15.44444316 8.5802462 21.45061548 16.30246778 6.86419697 7.72222158 10.29629546 16.30246778 12.01234468 19.73456627 1.71604925 3.43209849 0.85802462 6.00617233 0 6.86419696-1.71604925 3.43209849-4.29012309 4.29012309-5.14814771 4.29012309l-56.62962493 18.01851705z m-1.71604924-6.86419699l57.48764955-17.16049238 0.85802462-0.85802462v-1.71604925c-0.85802462-3.43209849-4.29012309-10.29629546-11.15432007-18.01851703-6.00617233-6.86419697-12.01234468-11.15432006-19.73456626-14.58641855-6.00617233-2.57407386-16.30246778-6.00617233-26.59876322-6.00617233-4.29012309 0-13.72839391 0-27.45678786 5.14814772-20.59259088 7.72222158-30.03086171 27.45678784-30.88888633 30.88888633-0.85802462 0.85802462-0.85802462 1.71604925 0 1.71604925 0 0.85802462 0.85802462 0.85802462 0.85802461 0.85802461h0.85802462l55.77160034 19.73456625z m59.20369878-14.58641854z m0 0z" fill="#961919" p-id="6717"></path><path d="M678.22221198 710.20368729l-57.48764954 18.01851703h-1.71604924L563.24691286 709.34566268c0-0.85802462 0-1.71604925 0.85802463-3.43209849 0.85802462-0.85802462 10.29629546-24.02468937 33.46296018-32.60493556 15.44444316-6.00617233 26.59876323-5.14814772 29.1728371-5.14814772 3.43209849 0 14.58641855 0 27.45678786 6.00617235 6.00617233 2.57407386 12.01234468 6.00617233 16.30246777 10.29629543 7.72222158 9.43827083 11.15432006 18.01851702 11.15432007 18.87654165 1.71604925 5.14814772-3.43209849 6.86419697-3.43209849 6.86419695z" fill="#F9F18F" p-id="6718"></path><path d="M678.22221198 709.34566268l-57.48764954 18.01851704h-1.71604924l-55.77160034-18.87654166v-1.71604923l50.62345261 17.1604924h1.71604924l57.48764955-18.01851704s5.14814772-1.71604925 2.57407386-7.72222157c0-0.85802462-4.29012309-11.15432006-12.87036929-20.59259089 2.57407386 1.71604925 4.29012309 3.43209849 6.00617232 5.14814772 7.72222158 9.43827083 11.15432006 18.01851702 11.1543201 18.87654165 3.43209849 5.14814772-1.71604925 7.72222158-1.71604927 7.72222158z" fill="#F4DD58" p-id="6719"></path><path d="M619.87653782 729.93825358c-1.71604925 0-3.43209849-1.71604925-3.43209848-3.43209851l-1.71604926-63.49382188c0-1.71604925 1.71604925-3.43209849 3.4320985-3.43209848s3.43209849 1.71604925 3.43209847 3.43209848l1.71604925 63.49382188c0 1.71604925-1.71604925 3.43209849-3.43209848 3.43209851z" fill="#961919" p-id="6720"></path><path d="M619.87653782 729.93825358h-0.85802462c-1.71604925-0.85802462-2.57407386-2.57407386-1.71604926-4.29012312l24.02468938-57.48764955c0.85802462-1.71604925 2.57407386-2.57407386 4.29012309-1.71604924 1.71604925 0.85802462 2.57407386 2.57407386 1.71604925 4.2901231l-24.02468936 57.48764955c-0.85802462 0.85802462-1.71604925 1.71604925-3.43209848 1.71604926z" fill="#961919" p-id="6721"></path><path d="M619.87653782 729.93825358c-0.85802462 0-2.57407386-0.85802462-2.57407388-1.71604926l-27.45678786-58.34567417c-0.85802462-1.71604925 0-3.43209849 1.71604924-4.2901231 1.71604925-0.85802462 3.43209849 0 4.29012311 1.71604924l27.45678787 58.34567417c0.85802462 1.71604925 0 3.43209849-1.71604925 4.29012312h-1.71604923z" fill="#961919" p-id="6722"></path><path d="M619.87653782 729.93825358c-0.85802462 0-1.71604925 0-2.57407388-0.85802464-0.85802462-1.71604925-0.85802462-3.43209849 0-4.29012311l48.90740336-42.901231c1.71604925-0.85802462 3.43209849-0.85802462 4.2901231 0 0.85802462 1.71604925 0.85802462 3.43209849 0 4.2901231l-48.90740335 42.90123101c0 0.85802462-0.85802462 0.85802462-1.71604923 0.85802464z" fill="#961919" p-id="6723"></path><path d="M619.87653782 729.93825358c-0.85802462 0-1.71604925 0-2.57407388-0.85802464l-48.04937873-43.75925562c-1.71604925-0.85802462-1.71604925-3.43209849 0-4.2901231 0.85802462-1.71604925 3.43209849-1.71604925 4.29012309 0l48.04937875 43.75925561c1.71604925 0.85802462 1.71604925 3.43209849 0 4.29012311 0 0.85802462-0.85802462 0.85802462-1.71604923 0.85802464z" fill="#961919" p-id="6724"></path><path d="M620.73456244 731.65430282h-3.4320985l-56.62962495-19.73456628c-0.85802462 0-3.43209849-1.71604925-5.14814771-5.14814771-0.85802462-1.71604925-0.85802462-4.29012309 0-6.86419697 2.57407386-6.00617233 12.87036929-26.59876323 35.17900943-34.32098481 14.58641855-5.14814772 25.7407386-5.14814772 29.17283711-5.14814771 12.01234468 0 23.16666475 3.43209849 29.1728371 6.00617233 7.72222158 3.43209849 14.58641855 7.72222158 19.73456623 13.72839392 8.5802462 9.43827083 12.87036929 18.87654164 13.72839393 21.45061551 1.71604925 3.43209849 0.85802462 5.14814772 0 6.86419696-1.71604925 3.43209849-4.29012309 4.29012309-5.14814771 4.2901231l-56.62962493 18.87654166z m-1.71604924-6.86419699l57.48764955-17.16049238 0.85802462-0.85802462v-1.71604925c-0.85802462-2.57407386-5.14814772-11.15432006-12.87036931-19.73456626-5.14814772-5.14814772-11.15432006-9.43827083-18.01851702-12.01234469-6.00617233-2.57407386-16.30246778-6.00617233-26.59876322-6.00617234-4.29012309 0-13.72839391 0-27.45678786 5.14814771-20.59259088 7.72222158-30.03086171 27.45678784-30.88888633 30.88888634-0.85802462 0.85802462-0.85802462 1.71604925 0 1.71604924 0 0.85802462 0.85802462 0.85802462 0.85802461 0.85802461l56.62962496 18.87654164z m59.20369878-14.58641854z m0 0z" fill="#961919" p-id="6725"></path><path d="M648.19135028 733.37035203h-4.2901231c3.43209849-6.00617233-3.43209849-8.5802462-7.72222159-9.4382708h1.71604923c-0.85802462-0.85802462 15.44444316 0.85802462 10.29629546 9.4382708z" fill="#F4DD58" p-id="6726"></path><path d="M649.90739951 736.80245053l-62.63579728-0.85802462-0.85802464-2.57407388c0-0.85802462-0.85802462-6.00617233 2.57407388-9.4382708 2.57407386-3.43209849 7.72222158-4.29012309 13.72839395-4.29012311h0.85802461l16.30246779 4.29012311 17.16049239-3.43209849h0.85802461s1.71604925 0 3.4320985 0.85802462c6.00617233 0.85802462 9.43827083 3.43209849 11.15432005 6.86419696 0.85802462 1.71604925 0.85802462 4.29012309-0.85802461 7.72222159l-1.71604925 0.85802462z m-26.59876321-6.86419695h23.16666474c0-0.85802462-1.71604925-1.71604925-6.00617235-2.57407386h-1.71604923l-15.44444316 2.57407386z m-30.88888634-0.85802464h24.02468938l-15.4444432-3.43209848c-3.43209849 0-6.86419697 0-7.72222157 1.71604926 0 0.85802462-0.85802462 0.85802462-0.85802461 1.71604922z" fill="#961919" p-id="6727"></path><path d="" fill="#F9F18F" p-id="6728"></path><path d="M619.87653782 741.95059825c-0.85802462 0-0.85802462 0 0 0-1.71604925 0-3.43209849-0.85802462-5.14814774-1.71604922-1.71604925-1.71604925-2.57407386-3.43209849-2.57407385-5.14814773s0.85802462-4.29012309 2.57407385-5.14814772c1.71604925-1.71604925 3.43209849-1.71604925 5.14814774-1.71604926 4.29012309 0 6.86419697 3.43209849 6.86419695 7.72222159 0 2.57407386-3.43209849 6.00617233-6.86419695 6.00617234z m0-8.58024622c-0.85802462 0-0.85802462 0.85802462-0.85802462 0.85802462v0.85802465s0.85802462 0 0.85802462-0.85802465v-0.85802462z m-4.29012311 0.85802462z" fill="#961919" p-id="6729"></path><path d="M439.69136753 116.45065001m-11.15432006 0a11.15432006 11.15432006 0 1 0 22.30864012 0 11.15432006 11.15432006 0 1 0-22.30864012 0Z" fill="#961919" p-id="6730"></path><path d="M439.69136753 133.61114243c-9.43827083 0-17.16049241-7.72222158-17.16049239-17.16049242s7.72222158-17.16049241 17.16049239-17.16049242 17.16049241 7.72222158 17.16049242 17.16049242-7.72222158 17.16049241-17.16049242 17.16049242z m0-21.45061552c-2.57407386 0-4.29012309 1.71604925-4.29012309 4.2901231s1.71604925 4.29012309 4.29012309 4.2901231 4.29012309-1.71604925 4.2901231-4.2901231-1.71604925-4.29012309-4.2901231-4.2901231z" fill="#961919" p-id="6731"></path><path d="M789.76541265 310.36421423H432.82717057V200.53706281l320.901208-58.34567418 36.03703408 168.1728256zM445.69753989 297.49384493h327.76540498L743.43208313 156.77780718l-297.73454324 54.05555108V297.49384493zM212.31484313 489.69135988c-1.71604925 0-3.43209849-0.85802462-5.14814772-2.57407387-2.57407386-2.57407386-1.71604925-6.86419697 0.85802462-9.43827082l26.59876324-20.5925909c2.57407386-2.57407386 6.86419697-1.71604925 9.43827081 0.85802462 2.57407386 2.57407386 1.71604925 6.86419697-0.85802461 9.43827086l-26.59876324 20.59259086c-1.71604925 1.71604925-2.57407386 1.71604925-4.2901231 1.71604925z" fill="#961919" p-id="6732"></path><path d="M445.69753989 544.60493557H165.12348901c-6.00617233 0-12.01234468-4.29012309-13.72839393-10.29629545-1.71604925-6.00617233 0-12.01234468 5.14814773-16.30246779l38.61110791-29.17283708c2.57407386-2.57407386 6.86419697-1.71604925 9.43827083 0.85802463 2.57407386 2.57407386 1.71604925 6.86419697-0.85802462 9.43827083l-38.61110792 29.17283707c-0.85802462 0.85802462-0.85802462 0.85802462-0.8580246 1.71604924s0.85802462 0.85802462 1.71604922 0.85802462h267.70368157V322.3765589L259.50619726 455.37037504c-2.57407386 2.57407386-6.86419697 1.71604925-9.43827083-0.85802461-2.57407386-2.57407386-1.71604925-6.86419697 0.85802464-9.43827082l194.77158882-148.43825933v247.96911529z" fill="#961919" p-id="6733"></path><path d="M790.62343726 509.42592614H432.82717057V369.56791301h358.65429131l-4.29012309 8.58024621s-3.43209849 7.72222158-6.00617235 20.59259089c-4.29012309 21.4506155-6.86419697 56.62962496 6.00617235 102.10492983l3.43209847 8.5802462z m-344.92589737-12.8703693h327.76540498c-11.15432006-43.75925563-8.5802462-78.08024046-4.29012314-99.53085597 0.85802462-6.00617233 2.57407386-10.29629546 3.43209851-14.58641853H445.69753989v114.1172745zM600.14197156 893.82095606H343.59261006c-42.90123101 0-82.37036355-24.02468937-102.10492982-61.77777267l-49.76542799-125.27159456c-1.71604925-3.43209849 0-6.86419697 3.43209847-8.58024621 3.43209849-1.71604925 6.86419697 0 8.58024621 3.43209848l48.90740337 124.41356995c17.16049241 33.46296019 51.48147723 54.05555109 90.09258513 54.05555108h256.54936146c37.7530833 0 72.93209274-21.4506155 90.09258519-54.91357571l75.50616657-157.87653013c6.86419697-12.87036929 5.14814772-29.17283709-4.2901231-39.46913255-1.71604925-1.71604925-3.43209849-4.29012309-6.00617235-6.00617234-2.57407386-2.57407386-6.00617233-4.29012309-9.43827082-6.86419696-14.58641855-8.5802462-34.32098481-13.72839391-54.05555106-13.72839392H250.92595107c-30.03086171 0-43.75925563 10.29629546-58.3456742 29.17283708-2.57407386 2.57407386-6.00617233 3.43209849-9.43827082 0.85802462-2.57407386-2.57407386-3.43209849-6.00617233-0.85802464-9.43827082 16.30246778-20.59259088 34.32098481-33.46296019 68.64196966-33.46296018H691.95060589c22.30864012 0 43.75925563 6.00617233 60.91974806 15.44444316 4.29012309 2.57407386 7.72222158 5.14814772 11.15432007 7.72222159 2.57407386 1.71604925 5.14814772 4.29012309 6.86419696 6.86419695 12.87036929 14.58641855 15.44444316 36.03703405 6.00617233 54.05555108l-75.50616657 157.87653015c-19.73456627 40.32715715-58.34567419 63.49382192-101.24690518 63.49382191z" fill="#961919" p-id="6734"></path><path d="M190.86422763 693.0431949c-2.57407386 0-5.14814772-1.71604925-6.00617234-4.29012309l-6.00617234-15.44444318c-3.43209849-6.86419697-6.00617233-15.44444316-5.14814772-24.0246894 0-3.43209849 3.43209849-6.86419697 6.86419696-6.00617231 3.43209849 0 6.00617233 3.43209849 6.00617234 6.86419697 0 6.00617233 0.85802462 12.87036929 4.2901231 18.87654165l6.00617233 16.30246778c1.71604925 3.43209849 0 6.86419697-3.43209846 8.58024619-1.71604925-1.71604925-2.57407386-0.85802462-2.57407387-0.85802461z" fill="#961919" p-id="6735"></path></svg>